# xmcd
#
# Track frame offsets:
#	150
#	10126
#	27901
#	48151
#	73549
#	94539
#	120069
#	147957
#	173183
#	199318
#	215144
#
# Disc length: 3183 seconds
#
# Revision: 0
# Processed by: cddbd v1.5.2PL0 Copyright (c) Steve Scherf et al.
# Submitted via: EasyCDDAExtractor 9.0.0.1
#
DISCID=910c6d0b
DTITLE=Ozzy Osbourne - McGonagles Dublin 11-01-91
DYEAR=1991
DGENRE=Hard Rock
TTITLE0=Carmina Burana
TTITLE1=Bark At The Moon
TTITLE2=I Don't Know
TTITLE3=Mr Crowley
TTITLE4=Flying High Again
TTITLE5=Shot In The Dark
TTITLE6=Suicide Solution
TTITLE7=Party With The Animals
TTITLE8=War Pigs
TTITLE9=Iron Man
TTITLE10=Crazy Train
EXTD=
EXTT0=
EXTT1=
EXTT2=
EXTT3=
EXTT4=
EXTT5=
EXTT6=
EXTT7=
EXTT8=
EXTT9=
EXTT10=
PLAYORDER=
